<?xml version="1.0" encoding="utf-8"?>
<!-- Generator: Adobe Illustrator 16.0.0, SVG Export Plug-In . SVG Version: 6.00 Build 0)  -->
<svg version="1.2" baseProfile="tiny" id="Layer_2" xmlns="http://www.w3.org/2000/svg" xmlns:xlink="http://www.w3.org/1999/xlink"
	 x="0px" y="0px" width="110px" height="90px" viewBox="0 0 110 90" xml:space="preserve">
<g>
	<path fill-rule="evenodd" fill="#03031E" d="M22.063,32.455c-0.184-0.036-0.367-0.072-0.682-0.134
		c0.271-0.31,0.455-0.647,0.74-0.82c0.991-0.601,1.62-1.351,1.302-2.613c0.595,1.029,0.389,1.971-0.342,2.871
		c0.052,0.028,0.103,0.056,0.154,0.084c0.627-0.184,1.255-0.367,1.882-0.55c0.016,0.026,0.032,0.051,0.049,0.077
		c-0.413,0.385-0.823,0.769-1.263,1.18c0.842,0.401,1.478,0.052,2.097-0.396c-0.147,1.189-1.273,1.269-2.11,0.955
		c-0.333-0.126-0.658-0.273-1.038-0.324c1.208,0.914,2.37,1.771,2.415,3.489c0.042,1.481,0.019,2.903-1.261,4.012
		c0.05,0.057,0.101,0.114,0.151,0.17c0.642,0.086,1.282,0.185,1.926,0.252c1.21,0.125,2.421,0.238,3.632,0.349
		c1.96,0.178,3.69,1.017,5.368,1.94c4.109,2.264,6.97,5.664,8.624,10.01c0.595,1.566,0.806,3.286,1.106,4.952
		c0.264,1.47,0.415,2.957,0.605,4.438c0.177,1.384,0.317,2.769,0.512,4.147c0.441,3.128,1.372,6.082,3.161,8.729
		c0.563,0.832,1.097,1.686,1.644,2.529c-0.032,0.06-0.064,0.121-0.096,0.182c-1.719-0.54-3.445-1.061-5.155-1.631
		c-2.68-0.892-5.186-2.175-7.525-3.724c-1.394-0.921-2.619-2.111-3.853-3.252c-1.484-1.372-2.893-2.825-4.348-4.229
		c-0.157-0.153-0.393-0.226-0.592-0.334c-0.044,0.035-0.088,0.073-0.133,0.108c0.219,0.735,0.459,1.467,0.653,2.209
		c0.562,2.15,0.452,4.346,0.403,6.533c-0.044,1.934-0.513,3.748-1.497,5.432c-0.92,1.577-2.132,2.904-3.484,4.106
		c-1.55,1.377-3.139,2.711-4.705,4.07c-0.393,0.341-0.763,0.711-1.19,1.11c-0.096-0.387-0.264-0.767-0.273-1.148
		c-0.029-1.342-0.057-2.687,0.017-4.026c0.072-1.318,0.717-2.437,1.584-3.395c1.158-1.281,2.375-2.509,3.577-3.75
		c1.786-1.841,3.27-3.878,3.659-6.471c0.195-1.288,0.135-2.624,0.103-3.937c-0.054-2.221-1.079-4.128-2.058-6.053
		c-0.683-1.344-1.234-2.757-1.942-4.086c-0.267-0.501-0.752-0.946-1.238-1.263c-1.185-0.772-2.493-1.366-3.635-2.193
		c-1.582-1.146-2.438-2.802-2.651-4.733c-0.118-1.064-0.193-2.159-0.07-3.216c0.208-1.778,1.167-3.255,2.401-4.498
		c0.712-0.717,1.632-1.226,2.459-1.831c0.062-0.044,0.127-0.087,0.178-0.143c0.021-0.024,0.007-0.078,0.005-0.046
		c-0.742-0.582-1.437-1.158-2.168-1.682c-0.236-0.168-0.566-0.24-0.863-0.285c-0.752-0.114-1.512-0.188-2.287-0.364
		C17.752,33.743,19.651,32.618,22.063,32.455z M27.165,51.353c-0.098,0.057-0.195,0.115-0.292,0.175
		c0.167,0.537,0.291,1.094,0.511,1.608c1.046,2.46,2.719,4.454,4.746,6.153c1.584,1.327,3.284,2.491,5.319,3.05
		c0.204,0.057,0.425,0.059,0.637,0.085c0.016-0.058,0.03-0.114,0.045-0.172c-1.552-0.969-3.103-1.938-4.809-3.001
		c0.311-0.095,0.459-0.184,0.603-0.176c1.069,0.052,2.138,0.182,3.206,0.173c1.155-0.009,2.597-1.188,2.992-2.293
		c0.167-0.466,0.012-0.646-0.459-0.641c-0.448,0.009-0.897,0.011-1.345-0.001c-1.524-0.034-2.928-0.416-4.089-1.457
		c-0.515-0.461-0.999-0.954-1.519-1.409c-0.108-0.095-0.31-0.082-0.469-0.119c0.009,0.144-0.027,0.316,0.038,0.432
		c0.19,0.331,0.395,0.663,0.64,0.955c0.968,1.147,2.338,1.722,3.589,2.466c0.125,0.075,0.231,0.182,0.422,0.335
		C32.107,57.833,29.022,55.573,27.165,51.353z"/>
	<path fill-rule="evenodd" fill="#03031E" d="M52.732,49.595c0.142-0.156,0.314-0.294,0.42-0.473
		c0.798-1.344,1.168-2.843,1.328-4.365c0.153-1.442,0.239-2.917,0.118-4.36c-0.14-1.7-0.538-3.378-0.818-5.066
		c-0.318-1.914-0.891-3.75-1.867-5.424c-0.866-1.485-1.847-2.901-2.776-4.349c-0.129-0.2-0.251-0.406-0.441-0.714
		c1.182,0.319,1.977,1.001,2.579,1.866c1.112,1.592,2.146,3.236,3.218,4.856c0.129,0.194,0.294,0.366,0.442,0.549
		c0.064-0.02,0.127-0.038,0.191-0.057c-0.057-0.414-0.082-0.833-0.169-1.239c-0.593-2.8-1.197-5.597-1.795-8.395
		c-0.017-0.078-0.002-0.161-0.002-0.441c0.253,0.421,0.441,0.685,0.58,0.972c1.188,2.465,2.007,5.063,2.684,7.703
		c0.471,1.833,0.894,3.687,1.2,5.553c0.408,2.474,0.145,4.925-0.704,7.287c-0.629,1.747-1.327,3.468-1.985,5.206
		c-0.097,0.254-0.144,0.528-0.212,0.793c0.06,0.034,0.119,0.066,0.179,0.099c0.2-0.276,0.424-0.541,0.596-0.835
		c1.304-2.222,2.179-4.602,2.422-7.166c0.389-4.103,0.143-8.174-0.91-12.175c-0.754-2.866-1.549-5.72-2.313-8.583
		c-0.091-0.34-0.1-0.701-0.146-1.052c0.073-0.016,0.146-0.033,0.219-0.049c0.106,0.201,0.239,0.392,0.315,0.604
		c1.474,4.145,2.935,8.293,4.415,12.437c0.055,0.159,0.23,0.274,0.35,0.41c0.135-0.124,0.353-0.224,0.396-0.376
		c0.547-1.85,1.089-3.702,1.592-5.564c0.434-1.613,0.815-3.238,1.224-4.857c0.018-0.074,0.062-0.142,0.162-0.197
		c-0.2,6.589-2.041,12.888-3.558,19.242c0.088,0.036,0.178,0.075,0.267,0.111c0.147-0.225,0.352-0.431,0.432-0.678
		c0.589-1.798,1.248-3.581,1.704-5.413c0.581-2.346,1.05-4.725,1.457-7.107c0.338-1.968,0.549-3.959,0.762-5.946
		c0.179-1.67,0.281-3.349,0.415-5.024c0.035-0.456,0.032-0.916,0.09-1.368c0.016-0.125,0.189-0.23,0.291-0.344
		c0.057,0.03,0.112,0.06,0.168,0.089c-0.227,7.305-0.456,14.611-0.685,21.917c0.07,0.033,0.141,0.066,0.212,0.099
		c0.346-0.19,0.707-0.355,1.03-0.575c1.739-1.179,3.071-2.77,4.375-4.383c1.631-2.018,3.235-4.056,4.863-6.075
		c0.214-0.264,0.5-0.471,0.751-0.704c0.062,0.032,0.124,0.063,0.186,0.095c-0.46,1.067-0.862,2.166-1.389,3.198
		c-1.491,2.918-3.403,5.57-5.417,8.141c-1.447,1.849-2.961,3.652-4.539,5.39c-1.425,1.57-2.974,3.026-4.467,4.535
		c-0.143,0.143-0.271,0.302-0.397,0.461c-0.062,0.074-0.104,0.161-0.092,0.358c0.205-0.077,0.441-0.116,0.606-0.244
		c1.124-0.865,2.306-1.678,3.333-2.646c1.785-1.684,3.468-3.476,5.202-5.212c1.921-1.924,3.853-3.841,5.787-5.753
		c0.255-0.25,0.563-0.447,0.99-0.784c-0.32,1.086-0.79,1.903-1.419,2.587c-2.073,2.252-4.192,4.461-6.288,6.69
		c-0.48,0.515-0.938,1.055-1.365,1.69c2.636-0.189,5.191-0.783,7.83-0.983c-2.704,1.197-5.413,2.379-8.109,3.593
		c-2.677,1.204-5.381,2.351-8.033,3.604c0.04,0.104,0.082,0.208,0.122,0.312c0.535-0.175,1.085-0.316,1.604-0.53
		c3.066-1.271,6.104-2.606,9.189-3.82c2.323-0.914,4.697-1.697,7.065-2.489c0.46-0.153,0.995-0.085,1.556-0.011
		c-2.854,1.553-5.709,3.107-8.563,4.662c-0.013,0.056-0.023,0.113-0.035,0.169c2.449,0.734,4.899,1.471,7.349,2.204
		c-0.007,0.044-0.019,0.087-0.028,0.132c-2.175-0.188-4.351-0.375-6.523-0.563c-0.01,0.086-0.018,0.173-0.027,0.26
		c1.674,0.208,3.347,0.414,5.021,0.621c-0.002,0.049-0.004,0.097-0.006,0.145c-3.614,0.336-7.231,0.673-10.993,1.021
		c0.222,0.301,0.344,0.561,0.545,0.725c1.273,1.039,2.561,2.066,3.85,3.085c1.541,1.222,3.185,2.329,4.387,3.926
		c0.209,0.278,0.366,0.595,0.547,0.895c-0.057,0.047-0.112,0.093-0.166,0.141c-0.955-0.769-1.936-1.5-2.854-2.305
		c-2.355-2.067-4.944-3.731-7.937-4.722c-1.58-0.521-3.199-0.863-4.87-0.93c-1.518-0.063-3.038-0.122-4.556-0.209
		c-0.203-0.012-0.396-0.169-0.739-0.323c-0.857,0.326-1.886,0.722-2.913,1.114c-0.011,0.075-0.021,0.148-0.031,0.223
		c0.493,0.145,0.979,0.335,1.482,0.429c1.891,0.354,3.715,0.858,5.2,2.166c2.097,1.846,3.581,4.102,4.451,6.755
		c0.023,0.073,0.002,0.16,0.002,0.444c-0.272-0.397-0.452-0.653-0.625-0.914c-1.03-1.523-2.019-3.074-3.102-4.56
		c-0.451-0.617-1.112-1.063-2.071-1.208c0,1.183,0,2.344,0,3.501c-0.078,0.008-0.154,0.015-0.23,0.021
		c-0.061-0.282-0.161-0.559-0.178-0.841c-0.154-2.807-2.181-4.729-4.748-5.25c-0.473-0.097-0.953-0.149-1.449-0.277
		c1.209-0.232,1.61-1.348,2.355-2.104c-0.125,0.048-0.252,0.097-0.545,0.211c0.372-0.685,0.649-1.238,0.968-1.768
		c0.56-0.925,0.81-1.933,0.846-2.997c0.026-0.772-0.033-1.55,0.013-2.32c0.13-2.214-0.569-4.191-1.793-5.978
		c-2.17-3.164-5.022-5.488-8.732-6.643c-0.858-0.267-1.768-0.362-2.793-0.564c0.251-0.108,0.401-0.234,0.543-0.225
		c2.43,0.142,4.838,0.363,7.086,1.437c1.215,0.581,2.476,1.068,3.723,1.582c0.616,0.253,0.836,0.132,0.714-0.533
		c-0.202-1.102-0.465-2.207-0.846-3.258c-0.52-1.436-1.177-2.822-1.765-4.234c-0.091-0.22-0.131-0.46-0.222-0.784
		c1.721,1.177,2.828,2.732,3.731,4.447c1.38,2.616,2.197,5.402,2.549,8.341c0.336,2.825,0.334,5.611-0.514,8.355
		c-0.184,0.594-0.419,1.173-0.63,1.761C52.664,49.519,52.699,49.556,52.732,49.595z M52.903,53.001
		c4.739-0.645,9.329-1.272,13.92-1.903c0.088-0.011,0.168-0.082,0.249-0.132c0.014-0.007,0.016-0.036,0.018-0.056
		c0-0.02-0.007-0.038-0.042-0.226c-1.5,0.081-3.03,0.122-4.553,0.254c-1.509,0.134-3.007,0.418-4.52,0.528
		c-1.66,0.121-3.219,0.549-4.712,1.253C53.171,52.763,53.096,52.849,52.903,53.001z"/>
	<path fill-rule="evenodd" fill="#03031E" d="M74.978,23.104c0.139-0.494,0.29-0.983,0.409-1.483
		c0.216-0.909,0.592-1.786,0.426-2.768c-0.114-0.659-0.102-1.339-0.145-2.009c-0.037-0.591-0.144-0.722-0.621-0.712
		c0,0.626-0.013,1.253,0.003,1.881c0.023,0.916-0.253,1.729-0.691,2.533c-0.777,1.427-1.62,2.813-2.8,3.931
		c-0.791,0.749-1.742,1.326-2.602,2.005c-0.682,0.536-1.229,1.116-1.408,2.069c-0.209,1.104,0.084,2.295-0.558,3.326
		c-0.065,0.104-0.035,0.267,0.079,0.535c0.513-0.381,0.979-0.873,1.551-1.114c0.552-0.231,0.793-1.17,1.731-0.616
		c-1.581,1.319-3.162,2.638-4.745,3.958c-0.051-0.031-0.102-0.062-0.15-0.092c0.069-0.273,0.079-0.579,0.215-0.814
		c0.439-0.769,0.776-1.542,0.748-2.464c-0.008-0.271,0.377-0.538,0.421-0.83c0.199-1.355,0.418-2.715,0.483-4.08
		c0.109-2.251,0.07-4.509,0.162-6.762c0.055-1.381,0.259-2.745,0.94-3.995c0.198-0.36,0.242-0.74,0.569-1.103
		c1.204-1.34,2.657-1.685,4.313-1.3c1.716,0.398,2.779,1.583,3.159,3.243c0.203,0.89,0.062,1.863,0.034,2.797
		c-0.033,1.122-0.301,2.191-0.841,3.183c-0.142,0.26-0.313,0.504-0.469,0.755C75.119,23.153,75.048,23.128,74.978,23.104z
		 M68.622,19.786c0.063,0.278,0.047,0.527,0.141,0.579c0.554,0.307,1.107,0.667,1.709,0.818c0.706,0.178,1.34-0.173,1.939-0.577
		c0.752-0.504,1.376-1.144,1.523-2.011c0.141-0.814,0.156-1.715-0.06-2.5c-0.123-0.448-0.399-1.08-1.104-1.253
		c-1.198-0.296-2.225-0.322-3.273,0.593c-1.135,0.99-1.598,2.112-1.399,3.531C68.146,19.289,68.479,19.57,68.622,19.786z"/>
	<path fill-rule="evenodd" fill="#03031E" d="M59.299,28.749c-0.208-1.042-0.323-2.084-0.633-3.066
		c-0.434-1.377-0.901-2.766-1.556-4.046c-0.993-1.938-2.226-3.754-3.222-5.692c-0.456-0.888-0.987-1.815-0.867-2.927
		c0.079-0.724,0.008-1.463,0.008-2.196c-0.002-1.536,1.22-3.233,2.97-3.534c1.874-0.322,3.128,0.523,4.15,1.945
		c0.846,1.177,1.248,2.526,1.643,3.899c0.548,1.899,0.459,3.829,0.243,5.725c-0.226,1.974-0.723,3.919-1.146,5.868
		c-0.288,1.329-0.595,2.662-1.379,3.817C59.453,28.627,59.358,28.691,59.299,28.749z M59.348,10.008
		c0.297-0.555-0.081-1.116-1.113-1.525c0.271,0.667,0.64,1.129,1.13,1.511c0.007,0.08,0,0.167,0.027,0.241
		c0.815,2.197,0.593,4.462,0.201,6.665c-0.247,1.391-0.949,2.703-1.479,4.038c-0.209,0.531-0.307,1.007-0.005,1.547
		c0.23,0.414,0.384,0.879,0.508,1.337c0.204,0.751,0.339,1.521,0.546,2.271c0.052,0.188,0.271,0.331,0.412,0.494
		c0.102-0.166,0.25-0.319,0.297-0.498c0.341-1.302,0.655-2.61,0.989-3.913c0.236-0.929,0.573-1.84,0.717-2.782
		c0.144-0.956,0.063-1.942,0.159-2.908c0.151-1.558-0.386-2.979-0.814-4.416c-0.168-0.564-0.574-1.057-0.765-1.618
		C60,9.995,59.765,9.891,59.348,10.008z M55.885,8.886c-0.703,0.007-2.053,1.064-2.211,1.897c-0.252,1.338-0.512,2.704,0.548,3.896
		c0.453,0.509,1.741,1.201,2.236,1.015c1.056-0.395,1.812-1.164,2.184-2.19c0.205-0.565,0.147-1.249,0.112-1.873
		C58.665,10.062,56.834,9.031,55.885,8.886z"/>
	<path fill-rule="evenodd" fill="#03031E" d="M41.175,24.493c-1.037-0.361-2.049-0.888-3.116-1.04
		c-1.061-0.15-2.211-0.254-3.265,0.404c0.497,0.096,0.995,0.194,1.494,0.29c2.125,0.408,3.814,1.504,5.098,3.232
		c0.732,0.984,1.197,2.074,1.385,3.296c0.039,0.251,0.337,0.597,0.578,0.658c1.266,0.325,2.554,0.575,3.933,0.872
		c-0.047-0.226-0.053-0.419-0.13-0.577c-0.331-0.665-0.693-1.313-1.019-1.981c-0.075-0.153-0.048-0.355-0.068-0.535
		c0.064-0.022,0.129-0.046,0.193-0.068c0.926,1.508,1.851,3.017,2.778,4.526c-0.036,0.038-0.07,0.076-0.106,0.115
		c-0.697-0.333-1.383-0.691-2.092-0.994c-1.893-0.808-3.864-1.254-5.93-1.362c-1.84-0.096-3.685-0.234-5.503-0.509
		c-0.811-0.122-1.613-0.541-2.333-0.969c-1.91-1.135-1.746-4.141-0.639-5.397c1.001-1.137,2.247-1.7,3.749-1.717
		c1.525-0.019,2.988,0.238,4.308,1.053c0.27,0.167,0.509,0.383,0.762,0.574C41.227,24.409,41.201,24.451,41.175,24.493z
		 M38.352,27.589c0.182-1.501-1.366-2.736-2.621-2.751c-1.507-0.019-3.206,1.31-3.138,2.583c0.081,1.528,1.117,2.892,3.025,2.933
		C37.093,30.384,38.482,29.169,38.352,27.589z"/>
	<path fill-rule="evenodd" fill="#03031E" d="M39.079,17.143c-0.319-0.354-0.795-0.657-0.924-1.069
		c-0.217-0.69-0.341-1.462-0.275-2.177c0.137-1.491,1.598-2.498,2.81-2.562c1.241-0.067,2.487-0.051,3.63,0.497
		c0.574,0.276,1.167,0.631,1.579,1.101c1.059,1.206,2.057,2.469,3.011,3.759c1.354,1.828,2.193,3.922,2.866,6.069
		c0.409,1.302,0.642,2.661,0.938,3.998c0.058,0.263,0.041,0.54,0.06,0.812c-0.052,0.022-0.103,0.044-0.154,0.066
		c-0.32-0.398-0.648-0.792-0.952-1.201c-0.055-0.072-0.056-0.239-0.01-0.322c0.407-0.738,0.137-1.48-0.06-2.174
		c-0.311-1.092-0.702-2.169-1.15-3.214c-0.909-2.12-1.809-4.267-3.468-5.939c-0.634-0.639-1.415-1.145-2.176-1.645
		c-0.655-0.43-1.357-0.802-2.074-1.124c-0.303-0.134-0.694-0.072-1.045-0.099c-0.02,0.059-0.039,0.118-0.057,0.176
		c0.266,0.148,0.514,0.354,0.797,0.437c2.33,0.675,3.471,2.49,4.211,4.565c0.421,1.18,0.513,2.478,0.748,3.723
		c0.118,0.621,0.226,1.241,0.356,1.965c-2.62-1.49-5.175-2.942-7.73-4.394c0.027-0.084,0.055-0.169,0.083-0.254
		c0.28,0.059,0.589,0.059,0.835,0.186c1.271,0.651,2.581,0.254,3.123-0.547c0.627-0.923,0.668-2.148-0.053-3.127
		c-0.693-0.939-1.539-1.684-2.835-1.775c-1.617-0.113-2.8,1.436-2.302,2.928c0.137,0.411,0.25,0.83,0.373,1.245
		C39.183,17.079,39.13,17.11,39.079,17.143z"/>
	<path fill-rule="evenodd" fill="#03031E" d="M62.244,67.097c-0.335-0.916-0.665-1.831-1.01-2.745
		c-1.257-3.323-3.051-6.276-6.1-8.255c-0.937-0.609-2.048-0.95-3.082-1.411c-0.383-0.169-0.77-0.33-1.155-0.494
		c0.007-0.055,0.013-0.11,0.02-0.167c0.468-0.03,0.943-0.019,1.403-0.098c2.168-0.382,4.281-0.17,6.346,0.557
		c3.734,1.312,7.058,3.353,10.091,5.85c1.327,1.094,2.496,2.378,3.731,3.584c0.149,0.146,0.247,0.346,0.37,0.519
		c-0.052,0.059-0.104,0.119-0.154,0.178c-0.898-0.662-1.8-1.319-2.693-1.985c-2.112-1.573-4.192-3.189-6.34-4.709
		c-1.274-0.902-2.727-1.477-4.279-1.75c-0.176-0.029-0.452,0.002-0.544,0.114c-0.084,0.104-0.031,0.381,0.046,0.543
		c0.617,1.298,1.241,2.595,1.895,3.873c1.015,1.993,1.645,4.08,1.656,6.326C62.377,67.049,62.313,67.073,62.244,67.097z"/>
	<path fill-rule="evenodd" fill="#03031E" d="M71.564,48.479c1.163-0.588,2.323-1.177,3.485-1.766
		c0.022,0.033,0.045,0.066,0.066,0.1c-0.382,0.306-0.763,0.613-1.256,1.01c0.222,0.183,0.392,0.442,0.602,0.478
		c0.976,0.166,1.959,0.293,2.948,0.38c0.248,0.019,0.558-0.113,0.768-0.272c1.414-1.063,2.898-2.032,4.606-2.507
		c1.031-0.287,2.143-0.317,3.223-0.371c0.311-0.016,0.633,0.29,1.076,0.355c-0.107-0.155-0.178-0.385-0.325-0.451
		c-0.782-0.355-1.539-0.708-2.476-0.603c-0.91,0.106-1.849-0.079-2.772-0.05c-1.354,0.041-2.582,0.533-3.792,1.125
		c-0.575,0.284-1.234,0.395-1.859,0.581c-0.033-0.091-0.071-0.184-0.104-0.275c0.783-0.396,1.542-0.857,2.358-1.172
		c2.294-0.889,4.711-0.691,7.085-0.583c1.282,0.059,2.504,0.563,3.442,1.554c0.85,0.896,1.35,1.939,0.938,3.14
		c-0.406,1.19-1.286,1.979-2.589,2.218c-1.505,0.279-2.96,0.029-4.402-0.375c-2.233-0.622-4.453-1.308-6.706-1.839
		c-1.242-0.295-2.546-0.328-3.82-0.481c-0.151-0.018-0.302-0.032-0.453-0.049C71.592,48.576,71.578,48.527,71.564,48.479z
		 M88.146,48.903c0.007-1.192-0.563-2.009-1.722-2.322c-0.966-0.262-1.87,0.051-2.725,0.494c-0.521,0.271-0.692,0.758-0.698,1.315
		c-0.005,0.326,0.002,0.651-0.003,0.975c-0.01,0.486,0.166,0.922,0.617,1.08c0.69,0.243,1.412,0.503,2.131,0.542
		C87.144,51.063,88.257,50.33,88.146,48.903z"/>
	<path fill-rule="evenodd" fill="#03031E" d="M74.34,38.759c0.476-0.83,0.84-1.595,1.322-2.28c1.544-2.197,3.285-4.213,5.531-5.741
		c1.135-0.772,2.388-1.273,3.729-0.886c2.421,0.698,3.502,2.996,2.16,5.435c-0.731,1.334-1.743,2.434-2.97,3.33
		c-0.268,0.194-0.591,0.311-0.89,0.463c-0.05-0.063-0.103-0.124-0.151-0.185c0.328-0.333,0.646-0.677,0.988-0.995
		c0.834-0.768,1.739-1.472,2.276-2.503c0.332-0.64,0.621-1.299,0.444-2.115c-0.154,0.214-0.357,0.41-0.456,0.647
		c-1.098,2.642-3.348,3.585-5.934,4.011c-1.882,0.31-3.769,0.566-5.651,0.842C74.662,38.794,74.583,38.776,74.34,38.759z
		 M82.182,35.976c2.147-0.11,3.37-1.421,3.283-3.512c-0.068-1.548-1.637-2.2-2.724-2.059c-1.403,0.182-2.458,0.962-3.071,2.289
		c-0.519,1.12-0.008,2.412,0.845,2.852C81.013,35.802,81.623,35.839,82.182,35.976z"/>
	<path fill-rule="evenodd" fill="#03031E" d="M87.708,58.063c0.442,0.48,0.972,0.869,1.221,1.389
		c0.172,0.36,0.048,0.937-0.108,1.354c-0.795,2.145-1.901,4.092-3.604,5.674c-2.001,1.863-4.345,2.678-7.061,2.468
		c-0.735-0.057-1.161-0.588-1.639-1.063c1.086-0.489,2.123-0.946,3.156-1.418c2.425-1.107,4.318-2.803,5.688-5.097
		c0.551-0.92,1.19-1.782,1.801-2.665C87.31,58.491,87.499,58.309,87.708,58.063z"/>
	<path fill-rule="evenodd" fill="#03031E" d="M87.79,55.48c0.681-1.202,1.352-2.301,1.936-3.446
		c0.542-1.058,1.124-2.123,1.451-3.254c0.58-2.007,0.212-3.996-0.501-5.926c-0.301-0.813-0.576-1.634-0.838-2.46
		c-0.088-0.281-0.095-0.586-0.132-0.848c0.088-0.063,0.117-0.101,0.151-0.105c0.572-0.088,1.26-0.402,1.687-0.192
		c0.398,0.196,0.527,0.946,0.773,1.454c0.423,0.87,0.859,1.735,1.263,2.616c0.111,0.248,0.18,0.537,0.182,0.808
		c0.018,1.28,0.007,2.56-0.001,3.841c0,0.155-0.012,0.325-0.067,0.469c-0.542,1.389-1.101,2.77-1.644,4.156
		C91.317,54.463,89.756,55.583,87.79,55.48z"/>
	<path fill-rule="evenodd" fill="#03031E" d="M63.096,53.479c3.227,0.228,6.297-0.095,9.017-1.941
		c0.987-0.665,1.861-1.496,2.811-2.22c0.359-0.274,0.788-0.459,1.182-0.684c0.888,1.517,0.84,2.094-0.248,3.375
		c-0.354,0.418-0.728,0.818-1.096,1.227c-0.987,1.098-2.225,1.692-3.623,2.187c-1.67,0.59-3.332,0.628-5.023,0.544
		C64.874,55.904,63.213,54.977,63.096,53.479z"/>
	<path fill-rule="evenodd" fill="#03031E" d="M65.129,69.417c-0.196-0.191-0.504-0.351-0.568-0.578
		c-0.406-1.407-0.849-2.812-1.1-4.248c-0.321-1.864-0.651-3.696-1.72-5.316c-0.367-0.559-0.646-1.177-0.964-1.768
		c0.035-0.055,0.068-0.11,0.103-0.164c1.405,0.688,2.807,1.377,4.24,2.081c-0.414,0.235-0.416,0.237-1.368-0.07
		c-0.45-0.146-0.893-0.305-1.4-0.479c-0.012,0.204-0.051,0.311-0.021,0.396c0.112,0.334,0.28,0.654,0.363,0.994
		c0.34,1.396,1.32,2.131,2.584,2.622c1.338,0.521,2.542,1.282,3.653,2.185c0.218,0.177,0.401,0.467,0.478,0.737
		c0.238,0.85,0.408,1.716,0.624,2.571c0.046,0.181,0.175,0.339,0.323,0.47c0.615-1.977-0.645-3.5-1.183-5.185
		c0.054-0.031,0.106-0.062,0.159-0.093c0.18,0.137,0.413,0.239,0.53,0.42c1.07,1.629,1.431,3.421,0.97,5.309
		c-0.355,1.454-1.433,2.251-2.893,2.429c-1.378,0.167-2.76-1.03-2.829-2.332c0.495,0.416,0.927,1.053,1.49,1.203
		c1.843,0.497,3.042-1.156,2.738-2.798c-0.199-1.079-1.089-1.49-1.913-1.899c-0.756-0.374-2.257,0.815-2.288,1.744
		C65.117,68.236,65.13,68.826,65.129,69.417z"/>
	<path fill-rule="evenodd" fill="#03031E" d="M48.152,7.534c-0.593-0.911-0.243-1.525,0.41-2.117c1.74-1.577,3.73-2.63,6.063-3.006
		c2.314-0.374,4.511,0.012,6.622,1c0.235,0.11,0.482,0.249,0.734,0.275c1.063,0.112,1.245,0.867,1.314,1.719
		c0.014,0.181,0.018,0.362,0.033,0.644c-0.771-0.23-1.504-0.447-2.235-0.667c-2.001-0.603-4.042-0.833-6.122-0.654
		c-1.335,0.117-2.5,0.715-3.644,1.374c-0.869,0.499-1.777,0.93-2.678,1.371C48.497,7.546,48.295,7.519,48.152,7.534z"/>
	<path fill-rule="evenodd" fill="#03031E" d="M65.384,10.525c0-0.505-0.002-0.97,0.001-1.437c0.001-0.12,0.015-0.238,0.022-0.366
		c1.006-0.274,1.979-0.605,2.979-0.796c1.448-0.277,2.867,0.032,4.25,0.468c2.315,0.732,4.492,1.733,6.303,3.403
		c1.181,1.087,1.391,2.01,0.746,3.692c-0.612-0.506-1.217-0.952-1.756-1.466c-1.699-1.617-3.421-3.233-5.852-3.601
		c-1.231-0.187-2.505-0.142-3.759-0.126C67.354,10.311,66.393,10.442,65.384,10.525z"/>
	<path fill-rule="evenodd" fill="#03031E" d="M89.732,37.082c-0.124-1.3-0.212-2.486-0.357-3.665
		c-0.329-2.678-1.607-4.795-3.874-6.284c-0.825-0.542-1.686-1.038-2.549-1.523c-0.321-0.181-0.351-0.349-0.212-0.677
		c0.472-1.117,0.464-1.14,1.688-0.887c1.721,0.356,3.153,1.233,4.338,2.509c2.314,2.493,2.934,5.523,2.628,8.785
		c-0.043,0.453-0.639,0.867-1.011,1.271C90.214,36.794,89.972,36.911,89.732,37.082z"/>
	<path fill-rule="evenodd" fill="#03031E" d="M81.163,57.973c-0.048-0.187-0.042-0.408-0.148-0.547
		c-0.383-0.489-0.803-0.945-1.268-1.484c0.98-0.116,1.316,0.651,1.797,1.089c1.145,1.048,1.806,2.381,1.729,3.965
		c-0.075,1.573-1.236,2.905-2.903,3.067c-0.382,0.036-0.785,0.063-1.157-0.009c-0.429-0.087-0.831-0.29-1.245-0.442
		c0.017-0.093,0.033-0.187,0.051-0.279c0.287,0,0.578-0.016,0.865,0.002c1.539,0.091,2.472-0.174,2.83-1.979
		c0.075-0.382-0.069-0.828-0.183-1.222c-0.308-1.078-2.292-2.183-3.359-1.896c-0.98,0.261-1.677,1.166-1.653,2.18
		c0.013,0.53,0.066,1.057,0.106,1.688c-0.358-0.343-0.726-0.665-1.059-1.016c-1.099-1.146-2.187-2.303-3.272-3.462
		c-0.146-0.157-0.27-0.334-0.486-0.606c1.04-0.137,1.978-0.323,2.922-0.365c1.054-0.046,2.114,0.078,3.169,0.051
		c1.151-0.03,2.027,0.479,2.836,1.21c0.09,0.082,0.295,0.029,0.445,0.038c0.256,0.545,0.509,1.091,0.761,1.636
		c0.082-0.018,0.159-0.032,0.239-0.05c0.009-0.185,0.1-0.429,0.014-0.542C81.903,58.609,81.864,57.947,81.163,57.973z"/>
	<path fill-rule="evenodd" fill="#03031E" d="M33.481,16.865c-0.431-4.314,1.347-7.56,4.895-9.904c0.9-0.596,1.94-0.923,3.055-0.878
		c0.711,0.027,1.354,0.5,1.61,1.211c-1.111,0.509-2.223,1.024-3.342,1.529c-2.043,0.919-3.103,2.646-3.81,4.647
		c-0.355,1.005-0.675,2.025-0.957,3.055c-0.171,0.629-0.506,0.743-1.054,0.506C33.753,16.975,33.625,16.924,33.481,16.865z"/>
	<path fill-rule="evenodd" fill="#03031E" d="M30.262,32.359c-1.284,0.212-1.744-0.075-2.298-1.38
		c-0.972-2.29-1.378-4.649-0.611-7.075c0.535-1.688,1.377-3.22,2.766-4.385c0.158-0.132,0.39-0.231,0.592-0.244
		c0.566-0.032,1.135-0.011,1.869-0.011c-0.437,0.617-0.829,1.112-1.158,1.646c-0.623,1.011-1.227,2.034-1.798,3.077
		c-0.157,0.287-0.22,0.654-0.229,0.986c-0.05,1.902-0.13,3.803,0.568,5.64C30.166,31.144,30.164,31.753,30.262,32.359z"/>
	<path fill-rule="evenodd" fill="#03031E" d="M55.899,62.707c0.062,0.799,0.271,1.388,0.911,1.939
		c1.561,1.346,2.314,3.091,2.093,5.188c-0.006,0.059-0.006,0.123-0.002,0.183c0.004,0.038,0.025,0.075,0.1,0.306
		c0.218-0.243,0.449-0.388,0.503-0.581c0.352-1.298,0.392-2.612,0.048-3.923c-0.11-0.427-0.216-0.854-0.261-1.301
		c0.582,0.488,0.774,1.16,0.81,1.854c0.049,0.971,0.087,1.956-0.005,2.923c-0.172,1.806-2.048,3.692-4.241,3.095
		c-1.203-0.326-2.007-1.348-1.948-2.675c0.043-0.976,0.225-1.963,0.495-2.904c0.371-1.289,0.882-2.54,1.336-3.806
		C55.774,62.899,55.845,62.807,55.899,62.707z M58.295,69.43c0.075-1.096-0.727-1.9-2.027-1.901
		c-1.28-0.002-2.003,0.799-2.016,2.059c-0.014,1.315,0.486,1.667,1.904,1.779C57.444,71.468,58.291,70.615,58.295,69.43z"/>
	<path fill-rule="evenodd" fill="#03031E" d="M61.217,52.655c0.123,1.453-0.183,1.994-1.328,2.462
		c-2.491,1.018-4.909,0.732-7.246-0.489c-0.791-0.412-1.333-1.492-1.294-2.338c1.3,0.384,2.595,0.805,3.914,1.141
		c1.324,0.337,2.635,0.284,3.93-0.258C59.81,52.914,60.501,52.833,61.217,52.655z"/>
	<path fill-rule="evenodd" fill="#03031E" d="M22.796,58.093c0.921,0.284,1.471,0.754,1.868,1.377
		c0.724,1.143,1.187,2.38,1.198,3.756c0.005,0.629,0.069,1.269-0.021,1.888c-0.053,0.353-0.289,0.77-0.575,0.976
		c-0.541,0.395-1.058,0.136-1.106-0.528c-0.049-0.701-0.072-1.425,0.046-2.111c0.253-1.467,0.072-2.812-0.772-4.059
		C23.201,59.045,23.06,58.641,22.796,58.093z"/>
	<path fill-rule="evenodd" fill="#03031E" d="M40.167,15.34c-0.525-0.004-0.832-0.307-0.831-0.819c0-0.438,0.429-0.87,0.848-0.856
		c0.387,0.014,0.829,0.455,0.833,0.83C41.023,14.922,40.599,15.344,40.167,15.34z"/>
	<path fill-rule="evenodd" fill="#03031E" d="M80.811,61.799c0.005,0.485-0.299,0.812-0.771,0.821
		c-0.52,0.009-0.829-0.297-0.824-0.814c0.006-0.53,0.295-0.771,0.804-0.779C80.527,61.016,80.805,61.288,80.811,61.799z"/>
	<path fill-rule="evenodd" fill="#03031E" d="M71.232,16.234c0.051-0.646,0.433-1.014,0.84-0.99c0.445,0.028,0.799,0.45,0.771,0.917
		c-0.028,0.496-0.404,0.833-0.886,0.76C71.463,16.849,71.215,16.55,71.232,16.234z"/>
	<path fill-rule="evenodd" fill="#03031E" d="M56.157,11.068c-0.512-0.003-0.784-0.31-0.798-0.843
		c-0.018-0.555,0.368-0.733,0.785-0.823c0.353-0.075,0.855,0.452,0.867,0.838C57.024,10.669,56.611,11.07,56.157,11.068z"/>
	<path fill-rule="evenodd" fill="#03031E" d="M34.786,26.893c-0.001,0.504-0.321,0.784-0.857,0.79
		c-0.546,0.007-0.741-0.36-0.817-0.788c-0.063-0.356,0.431-0.797,0.821-0.803C34.455,26.083,34.786,26.395,34.786,26.893z"/>
	<path fill-rule="evenodd" fill="#03031E" d="M87.642,49.068c-0.007,0.442-0.417,0.834-0.87,0.826
		c-0.394-0.009-0.806-0.421-0.817-0.819c-0.014-0.42,0.417-0.863,0.842-0.866C87.223,48.206,87.647,48.639,87.642,49.068z"/>
	<path fill-rule="evenodd" fill="#03031E" d="M84.584,32.283c0.006,0.462-0.37,0.844-0.838,0.851
		c-0.325,0.005-0.826-0.474-0.842-0.807c-0.023-0.427,0.388-0.84,0.84-0.843C84.278,31.478,84.576,31.764,84.584,32.283z"/>
	<path fill-rule="evenodd" fill="#03031E" d="M68.129,50.338c-0.553-0.006-1.195,0.075-1.285-0.663
		c-0.03-0.266,0.174-0.694,0.398-0.819c0.228-0.131,0.7-0.097,0.917,0.065C68.717,49.334,68.381,49.851,68.129,50.338z"/>
	<path fill-rule="evenodd" fill="#03031E" d="M56.931,50.421c-0.004,0.57-0.336,0.899-0.802,0.872
		c-0.472-0.03-0.733-0.297-0.762-0.763c-0.026-0.428,0.365-0.821,0.811-0.793C56.646,49.768,56.891,50.056,56.931,50.421z"/>
	<path fill-rule="evenodd" fill="#03031E" d="M20.382,33.58c0.203,0,0.367,0.164,0.367,0.366s-0.165,0.367-0.367,0.367
		c-0.203,0-0.367-0.164-0.367-0.367S20.179,33.58,20.382,33.58z"/>
</g>
</svg>
